<?xml version="1.0" standalone="no"?>
<!DOCTYPE svg PUBLIC "-//W3C//DTD SVG 20010904//EN"
 "http://www.w3.org/TR/2001/REC-SVG-20010904/DTD/svg10.dtd">
<svg version="1.0" xmlns="http://www.w3.org/2000/svg"
 width="1280.000000pt" height="640.000000pt" viewBox="0 0 1280.000000 640.000000"
 preserveAspectRatio="xMidYMid meet">
<metadata>
Created by potrace 1.15, written by Peter Selinger 2001-2017
</metadata>
<g transform="translate(0.000000,640.000000) scale(0.100000,-0.100000)"
fill="#000000" stroke="none">
<path d="M5834 6383 c-7 -5 -13 -17 -15 -28 -3 -13 -15 -22 -34 -25 -22 -4
-35 -15 -47 -39 -9 -19 -30 -40 -46 -47 -29 -12 -34 -23 -46 -99 -4 -25 -86
-48 -124 -34 -29 11 -84 -4 -112 -30 -9 -9 -27 -24 -38 -33 -17 -13 -22 -29
-22 -62 0 -25 -5 -48 -11 -52 -6 -3 -9 -20 -6 -38 6 -42 -11 -78 -34 -71 -14
5 -24 -3 -39 -27 -18 -30 -19 -43 -3 -85 3 -7 -2 -13 -11 -13 -9 0 -28 -7 -41
-16 -14 -9 -33 -13 -44 -9 -11 3 -30 1 -41 -5 -17 -9 -28 -6 -63 20 -41 29
-45 30 -76 17 -18 -8 -41 -28 -51 -45 -18 -30 -20 -31 -77 -25 -43 4 -63 11
-75 27 -23 28 -22 34 6 48 42 18 40 41 -9 128 -9 15 -15 53 -15 92 0 73 -14
115 -40 123 -9 3 -36 1 -61 -3 -25 -5 -84 -7 -133 -4 -77 4 -94 2 -134 -18
-26 -13 -62 -36 -80 -52 l-34 -29 -43 26 c-24 14 -54 25 -67 25 -13 0 -29 5
-34 10 -7 7 -21 6 -45 -4 -19 -7 -55 -17 -82 -20 -44 -7 -48 -6 -57 19 -7 17
-15 25 -24 22 -8 -3 -31 -9 -50 -13 -22 -4 -46 -18 -61 -36 -24 -28 -24 -30
-9 -61 16 -30 16 -32 -8 -51 -14 -12 -28 -29 -31 -39 -4 -9 -18 -22 -32 -29
-14 -6 -25 -17 -25 -23 0 -7 -9 -20 -20 -30 -11 -10 -20 -25 -20 -33 0 -20
-65 -82 -85 -82 -9 0 -26 5 -37 11 -34 18 -50 -6 -37 -58 10 -39 9 -45 -27
-103 -46 -75 -71 -96 -140 -116 -30 -8 -56 -19 -59 -24 -9 -15 -133 -50 -177
-50 -52 0 -108 -31 -108 -60 0 -12 -18 -38 -40 -59 -32 -30 -40 -45 -40 -74 0
-20 4 -38 9 -41 12 -8 -5 -84 -25 -114 -9 -14 -14 -41 -13 -66 2 -32 -4 -55
-25 -90 -25 -43 -27 -51 -15 -72 9 -18 10 -27 1 -36 -6 -6 -9 -23 -6 -37 5
-26 -42 -161 -73 -208 -16 -23 -116 -83 -140 -83 -8 0 -26 8 -40 17 -19 13
-28 14 -30 6 -3 -9 -18 -10 -49 -6 -37 5 -49 2 -79 -21 -29 -23 -35 -33 -35
-66 0 -21 -5 -42 -10 -45 -6 -3 -10 -24 -10 -45 0 -22 -6 -54 -14 -72 -8 -18
-20 -48 -26 -65 -14 -36 -36 -42 -87 -22 -15 6 -48 7 -76 4 -54 -8 -74 -25
-161 -140 -49 -65 -59 -72 -112 -88 -33 -9 -75 -19 -94 -21 -21 -2 -39 -11
-48 -25 -8 -11 -23 -21 -33 -21 -9 0 -27 -13 -39 -30 -17 -24 -29 -30 -57 -30
-20 0 -46 -9 -60 -20 -37 -29 -54 -24 -90 24 -17 24 -48 51 -68 61 l-38 17
-31 -35 c-39 -43 -80 -64 -134 -68 -34 -3 -45 1 -58 19 -8 12 -22 22 -29 22
-8 0 -21 13 -30 30 -9 18 -26 32 -43 36 -15 4 -37 13 -49 20 -24 15 -141 58
-183 67 -25 6 -70 -21 -70 -41 0 -18 -81 -91 -115 -102 -30 -10 -35 -16 -35
-43 -1 -43 -25 -86 -85 -149 -28 -29 -68 -79 -89 -110 -22 -32 -43 -58 -48
-58 -4 0 -8 -20 -8 -45 0 -34 -6 -52 -29 -77 -37 -43 -53 -95 -52 -180 0 -18
-5 -28 -15 -28 -19 0 -41 -52 -49 -116 -5 -44 -2 -72 21 -166 10 -43 -2 -72
-35 -84 -20 -8 -31 -21 -35 -42 -4 -18 -15 -32 -27 -35 -12 -3 -19 -14 -19
-29 0 -14 -22 -46 -55 -82 -30 -32 -55 -61 -55 -65 1 -3 7 -17 15 -31 9 -17
12 -44 9 -85 -7 -86 -13 -105 -29 -105 -10 0 -12 -9 -8 -38 11 -68 20 -84 43
-72 16 9 20 8 20 -5 0 -8 17 -25 37 -38 35 -23 38 -27 39 -78 0 -34 9 -70 22
-96 19 -36 27 -42 59 -45 28 -2 37 -7 34 -18 -11 -39 -12 -92 -2 -104 18 -21
51 -126 51 -161 0 -42 58 -97 132 -125 62 -23 69 -29 88 -80 7 -19 19 -42 27
-51 17 -20 17 -44 -2 -59 -15 -13 -16 -104 -1 -129 5 -8 1 -20 -12 -33 l-20
-21 20 -28 21 -28 30 22 c21 16 31 18 34 10 3 -7 13 -13 24 -13 10 0 28 -13
41 -30 25 -35 34 -37 60 -13 12 10 33 16 56 15 20 0 52 4 70 9 28 9 36 7 62
-14 29 -25 44 -30 130 -42 62 -9 86 -27 116 -86 22 -44 42 -69 109 -138 6 -5
29 -27 53 -47 30 -26 42 -44 42 -64 0 -40 18 -50 79 -43 51 6 53 5 46 -16 -5
-17 2 -31 29 -61 24 -27 36 -50 36 -69 0 -16 7 -34 15 -41 8 -7 15 -19 15 -28
0 -36 28 -50 91 -45 58 6 61 5 97 -29 20 -20 49 -38 64 -42 19 -4 30 -16 38
-41 14 -42 59 -71 130 -85 29 -6 59 -15 66 -21 8 -6 60 -10 131 -10 267 2 246
0 276 29 l28 26 34 -18 c32 -17 36 -18 75 -2 22 9 55 16 73 16 49 0 207 -29
251 -46 33 -13 47 -13 86 -3 41 10 55 10 96 -5 27 -10 66 -20 86 -23 53 -7
242 42 301 78 57 34 95 37 130 9 32 -26 53 -25 129 4 63 23 63 23 118 5 30
-10 69 -18 86 -18 36 -1 119 25 154 49 14 10 37 24 51 33 18 11 28 27 33 54 3
21 10 44 15 52 12 19 102 26 171 13 47 -9 57 -8 68 6 17 22 15 27 -14 40 -14
7 -32 28 -40 47 -9 23 -21 35 -34 35 -10 0 -22 5 -26 11 -3 6 -21 17 -39 25
-31 13 -32 15 -39 95 -5 63 -4 85 7 98 8 9 17 35 21 59 5 35 2 48 -14 69 -11
14 -20 32 -20 39 0 18 55 45 75 38 10 -4 26 3 41 17 21 20 24 29 18 65 -4 26
-2 44 5 48 6 4 11 17 11 29 1 12 9 32 19 44 16 19 22 21 48 11 17 -6 38 -8 49
-3 22 9 90 15 185 17 61 1 67 3 82 30 20 35 42 44 64 27 9 -8 30 -19 47 -24
26 -9 36 -7 57 8 21 15 31 17 47 8 29 -15 52 -14 73 5 16 14 20 14 43 -1 14
-10 60 -20 103 -25 43 -4 88 -11 100 -15 16 -5 25 -1 38 18 9 14 30 29 46 32
16 4 36 17 45 30 14 22 19 23 145 21 122 -2 132 -1 161 21 37 26 48 29 48 9 0
-7 6 -19 14 -25 11 -9 20 -6 44 16 25 22 33 41 41 91 5 34 17 70 26 79 11 10
14 24 10 37 -17 55 -17 64 4 75 11 6 23 26 26 44 5 27 14 36 50 50 27 12 68
44 108 86 l63 67 18 -23 c12 -16 27 -23 51 -23 30 0 35 -4 41 -27 10 -49 28
-75 61 -91 32 -15 34 -15 63 13 l30 28 35 -19 c19 -10 49 -33 66 -51 l31 -33
-26 -35 c-26 -33 -26 -36 -10 -60 l16 -25 28 20 c16 11 41 20 57 20 17 0 38 9
48 20 24 27 31 26 81 -12 42 -32 57 -69 34 -83 -5 -3 -10 -15 -10 -27 0 -18 4
-20 31 -14 17 3 36 6 40 6 5 0 17 16 26 35 9 20 24 35 34 35 9 0 19 9 22 20 3
11 13 23 24 26 10 3 42 16 71 27 45 18 56 19 74 8 18 -11 22 -11 30 3 5 9 18
16 29 16 16 0 19 4 14 21 -6 16 4 31 47 69 29 27 58 49 64 50 13 0 25 48 25
93 0 23 3 28 17 22 15 -6 112 -35 120 -35 1 0 7 11 12 25 6 16 17 25 31 25 14
0 24 10 32 30 6 16 15 30 20 30 4 0 29 -11 55 -25 26 -14 55 -25 65 -25 31 0
75 38 82 70 4 16 29 57 56 91 27 34 49 67 49 74 0 17 30 75 39 75 11 0 31 47
31 75 0 13 6 25 13 28 8 2 11 21 10 55 -2 42 2 57 22 81 14 16 25 34 25 39 0
6 16 23 35 38 23 17 35 35 35 50 0 15 6 24 15 24 8 0 27 18 42 41 25 39 28 53
22 137 -2 32 8 39 34 23 15 -10 22 -10 25 -2 2 6 11 20 20 31 16 20 21 20 62
9 48 -13 68 -8 162 42 20 10 49 19 63 19 14 0 39 7 54 15 16 8 42 14 57 14 27
0 84 7 219 25 l50 7 23 -40 c25 -45 54 -58 96 -42 44 17 63 13 70 -15 4 -16
17 -29 36 -35 16 -6 32 -19 35 -29 9 -27 33 -32 85 -16 47 14 99 10 178 -14
36 -11 42 -17 42 -41 0 -20 9 -34 31 -50 l32 -22 28 34 c57 69 69 79 94 79 14
0 47 12 74 27 l49 28 49 -23 c34 -16 62 -22 93 -20 40 3 46 6 54 33 22 75 22
75 79 75 29 0 58 5 63 10 8 8 19 7 39 0 34 -13 36 -10 44 37 9 55 36 54 108 0
32 -25 66 -46 77 -48 13 -3 23 -20 32 -58 18 -68 18 -67 65 -92 31 -15 50 -19
83 -14 42 7 42 6 58 -32 9 -21 19 -56 23 -78 3 -22 26 -80 49 -130 24 -49 47
-105 51 -123 5 -23 15 -36 36 -45 21 -8 38 -29 57 -67 22 -45 33 -56 57 -60
17 -3 42 -13 58 -24 19 -13 36 -17 58 -12 20 4 44 0 65 -10 18 -9 38 -13 43
-9 6 3 11 28 11 54 0 40 4 50 20 54 10 3 24 -1 31 -9 15 -18 53 -18 69 1 14
17 47 19 69 6 10 -6 19 -3 30 10 11 13 35 23 72 28 31 4 72 17 92 28 29 17 38
19 46 9 7 -9 27 -12 59 -8 36 3 51 0 61 -12 15 -18 91 -23 91 -6 0 6 7 10 15
10 9 0 20 11 25 24 5 13 14 27 19 31 17 10 13 23 -9 30 -29 9 -27 68 10 290 6
39 11 107 11 151 0 73 3 89 34 150 41 84 64 111 100 120 17 4 34 19 44 38 28
53 140 157 184 170 36 10 42 16 57 65 10 29 23 58 29 64 18 18 13 72 -9 92
-28 25 -18 69 25 110 40 37 60 100 45 140 -11 30 -13 107 -4 155 5 23 16 36
39 47 18 9 38 25 43 37 12 24 26 95 23 113 -1 7 8 29 19 50 11 21 20 42 20 46
0 5 16 28 35 51 19 24 35 52 35 62 1 25 45 57 68 49 29 -9 85 24 79 46 -3 10
1 26 9 36 8 11 14 46 14 93 0 50 6 82 15 94 23 30 18 42 -22 55 -32 10 -46 10
-86 -4 -47 -16 -47 -16 -81 10 -27 21 -44 26 -82 24 -43 -3 -50 0 -76 31 -15
19 -28 38 -28 43 0 4 -12 24 -27 43 -24 29 -34 34 -69 34 -26 0 -47 -6 -55
-16 -15 -18 -31 -15 -109 16 -30 12 -67 24 -82 27 -24 5 -26 8 -17 30 12 33
11 44 -7 68 -14 19 -15 19 -49 0 -35 -18 -36 -18 -78 5 -23 12 -49 30 -57 40
-8 9 -49 27 -90 40 -41 13 -93 32 -116 42 l-41 18 -5 89 -5 90 -54 61 c-37 42
-61 81 -75 123 -20 59 -22 62 -55 64 -74 4 -101 15 -122 50 -19 33 -23 35 -59
29 -37 -6 -38 -5 -38 24 0 24 -5 31 -27 36 -15 4 -33 2 -42 -5 -9 -6 -26 -15
-38 -21 -16 -7 -25 -21 -29 -50 -4 -22 -10 -40 -14 -40 -17 0 -45 45 -45 73 0
26 -6 35 -37 52 -22 11 -42 32 -47 47 -11 31 -53 47 -75 29 -17 -14 -64 2 -73
25 -3 9 -17 27 -29 40 -13 12 -24 28 -24 34 0 16 -21 12 -67 -12 -37 -20 -44
-21 -67 -8 -20 10 -29 11 -38 2 -7 -7 -24 -12 -39 -12 -18 0 -34 -9 -47 -27
l-20 -28 -27 25 c-22 21 -28 22 -35 10 -30 -53 -34 -55 -91 -42 -29 7 -67 24
-85 37 -18 14 -37 25 -43 25 -6 0 -27 11 -47 25 -27 18 -50 25 -85 25 -35 0
-58 7 -85 25 -20 14 -40 25 -44 25 -4 0 -11 -15 -14 -33 -4 -22 -14 -36 -34
-44 -29 -13 -68 -75 -58 -91 7 -12 -31 -42 -52 -42 -8 0 -45 27 -82 60 -37 33
-72 60 -78 60 -5 0 -15 -7 -22 -15 -7 -8 -25 -15 -40 -15 -16 0 -41 -7 -57
-14 -15 -8 -36 -17 -45 -20 -10 -3 -18 -13 -18 -22 0 -21 66 -83 103 -96 37
-13 35 -43 -4 -63 -24 -13 -37 -14 -60 -6 -37 13 -72 -1 -88 -35 -6 -13 -15
-24 -21 -24 -5 0 -10 -9 -10 -19 0 -11 -9 -22 -19 -26 -11 -3 -28 -22 -38 -42
-14 -27 -30 -40 -74 -57 l-55 -22 -17 22 c-9 13 -17 33 -17 45 0 18 -4 21 -29
16 -25 -5 -29 -3 -35 21 -3 15 -14 38 -25 52 l-20 25 -23 -23 c-14 -12 -29
-22 -34 -22 -17 0 -104 97 -104 115 0 14 -6 16 -30 12 -35 -7 -50 12 -50 65 0
58 -23 78 -86 78 -58 0 -85 -9 -121 -43 l-22 -20 -43 32 c-43 32 -43 32 -46 9
-5 -27 -57 -104 -74 -110 -16 -6 -125 45 -153 70 -40 36 -71 49 -129 55 -56 6
-58 5 -54 -17 4 -19 1 -22 -19 -18 -20 4 -24 1 -21 -14 5 -31 -33 -30 -59 2
-21 26 -25 27 -36 13 -9 -12 -18 -14 -37 -7 -13 5 -35 6 -48 3 -21 -5 -23 -10
-18 -38 17 -83 17 -132 3 -152 -15 -19 -16 -19 -51 -2 -38 18 -76 23 -76 10 0
-5 -26 -9 -57 -11 -48 -2 -63 -8 -88 -32 -17 -17 -39 -30 -48 -30 -12 0 -17
-8 -17 -29 0 -40 -25 -60 -40 -32 -11 22 -30 28 -30 10 0 -6 -9 -22 -19 -35
-11 -13 -17 -33 -14 -44 6 -24 -23 -114 -43 -130 -8 -8 -14 -30 -14 -56 0 -26
-8 -57 -21 -79 -16 -26 -19 -44 -15 -69 8 -42 -16 -56 -48 -28 -12 11 -40 32
-64 46 -24 15 -46 35 -50 45 -4 10 -21 30 -38 45 -27 22 -42 26 -107 28 -82 3
-107 -9 -107 -47 0 -28 -63 -78 -99 -80 -14 0 -44 5 -65 13 -21 7 -51 11 -65
8 -17 -4 -34 1 -49 12 -23 17 -23 21 -11 60 7 23 18 47 26 53 7 6 13 26 13 44
0 34 36 75 66 75 24 0 15 31 -17 61 -28 26 -30 32 -20 57 20 49 -4 293 -33
340 -11 18 -64 14 -83 -6 -10 -9 -25 -29 -34 -42 -16 -23 -18 -24 -35 -9 -30
26 -75 46 -122 54 -51 8 -58 21 -42 71 9 26 9 39 1 47 -6 6 -11 19 -11 29 0
20 -20 24 -38 6 -9 -9 -16 -8 -29 4 -10 9 -27 18 -38 22 -24 7 -86 120 -85
155 0 13 -12 48 -26 78 -15 33 -26 73 -26 104 -1 42 -6 53 -29 70 -15 10 -32
19 -38 19 -7 0 -23 7 -37 17 -21 13 -25 23 -22 52 3 32 0 36 -22 39 -14 1 -30
-1 -36 -5z"/>
</g>
</svg>
